<svg width="148" height="140" viewBox="0 0 148 140" fill="none" xmlns="http://www.w3.org/2000/svg">
<path fill-rule="evenodd" clip-rule="evenodd" d="M2.37995 100.928C2.95103 100.725 3.55198 100.454 4.01541 100.063C4.56581 99.5975 4.78965 98.9985 4.93997 98.368C5.13295 97.558 5.21006 96.6952 5.44407 95.8838C5.53072 95.5825 5.69747 95.4687 5.76901 95.4181C5.94986 95.2904 6.13265 95.2563 6.30463 95.2691C6.50845 95.2839 6.78842 95.361 6.97254 95.7027C6.9988 95.7516 7.03292 95.8261 7.05589 95.9281C7.07263 96.003 7.08346 96.237 7.10119 96.3335C7.14549 96.5711 7.18258 96.8087 7.21737 97.0477C7.33323 97.8429 7.39986 98.5183 7.76581 99.2489C8.26238 100.241 8.75995 100.848 9.43474 101.116C10.0872 101.376 10.8673 101.327 11.8641 101.124C11.959 101.101 12.0528 101.081 12.1457 101.065C12.5852 100.988 13.0053 101.277 13.0916 101.714C13.1779 102.152 12.8986 102.578 12.4631 102.674C12.3722 102.694 12.2826 102.713 12.194 102.731C10.847 103.064 9.28769 104.254 8.38151 105.296C8.10221 105.618 7.69327 106.516 7.27613 107.089C6.96827 107.512 6.62234 107.79 6.33187 107.889C6.13725 107.955 5.97315 107.945 5.8376 107.912C5.64068 107.863 5.47724 107.756 5.35187 107.587C5.2836 107.494 5.22024 107.369 5.19005 107.211C5.17561 107.134 5.17397 106.94 5.1743 106.852C5.0893 106.559 4.98525 106.274 4.90944 105.979C4.7286 105.275 4.3738 104.829 3.95239 104.24C3.55821 103.689 3.13484 103.343 2.51421 103.067C2.43347 103.047 1.78198 102.887 1.55191 102.796C1.21582 102.662 1.05565 102.437 0.99756 102.316C0.89877 102.11 0.888605 101.931 0.908297 101.781C0.937507 101.56 1.03663 101.371 1.21254 101.218C1.32151 101.124 1.4843 101.031 1.70223 100.986C1.8706 100.951 2.31726 100.931 2.37995 100.928ZM6.20191 99.7806C6.2321 99.8479 6.26427 99.9155 6.2984 99.9838C7.0257 101.436 7.83899 102.247 8.82755 102.641L8.8607 102.654C8.19937 103.145 7.60071 103.693 7.14319 104.22C6.9548 104.436 6.70538 104.886 6.43592 105.348C6.19108 104.552 5.79067 103.989 5.2872 103.285C4.90255 102.748 4.49951 102.344 4.00425 102.014C4.38858 101.817 4.75518 101.586 5.07452 101.316C5.60622 100.867 5.95772 100.346 6.20191 99.7806Z" fill="#E3E3E3"/>
<circle cx="16.9" cy="4.0667" r="3.2" fill="#E3E3E3"/>
<circle cx="144.367" cy="70.7334" r="3.2" fill="#E3E3E3"/>
<path d="M69.7 122.467C103.279 122.467 130.5 95.2456 130.5 61.6667C130.5 28.0878 103.279 0.866699 69.7 0.866699C36.1211 0.866699 8.90002 28.0878 8.90002 61.6667C8.90002 95.2456 36.1211 122.467 69.7 122.467Z" fill="url(#paint0_linear_1049_7902)"/>
<path fill-rule="evenodd" clip-rule="evenodd" d="M69.4333 24.8667C76.0608 24.8667 81.4333 19.4941 81.4333 12.8667C81.4333 6.23928 76.0608 0.866699 69.4333 0.866699C62.8059 0.866699 57.4333 6.23928 57.4333 12.8667C57.4333 19.4941 62.8059 24.8667 69.4333 24.8667ZM69.1667 19.5335C72.7013 19.5335 75.5667 16.6681 75.5667 13.1335C75.5667 9.5989 72.7013 6.73352 69.1667 6.73352C65.632 6.73352 62.7667 9.5989 62.7667 13.1335C62.7667 16.6681 65.632 19.5335 69.1667 19.5335Z" fill="#276E59"/>
<path d="M69.1933 109.187C82.1682 109.187 92.6865 98.6682 92.6865 85.6932C92.6865 72.7183 82.1682 62.2 69.1933 62.2C56.2183 62.2 45.7 72.7183 45.7 85.6932C45.7 98.6682 56.2183 109.187 69.1933 109.187Z" fill="url(#paint1_linear_1049_7902)"/>
<path d="M106.443 68.4802V50.4562C106.443 40.6249 102.538 31.1964 95.5858 24.2446C88.6341 17.2929 79.2055 13.3875 69.3743 13.3875C59.5431 13.3875 50.1145 17.2929 43.1628 24.2446C36.211 31.1964 32.3056 40.6249 32.3056 50.4562V68.4802C32.306 72.6211 31.1346 76.6776 28.9267 80.1807C26.7189 83.6839 23.5647 86.4908 19.8289 88.2769C18.9702 88.6858 18.2454 89.3302 17.7388 90.1351C17.2322 90.94 16.9646 91.8722 16.9673 92.8232V92.9209C16.9667 93.2644 17.0338 93.6046 17.1648 93.9221C17.2958 94.2397 17.4881 94.5283 17.7308 94.7714C17.9734 95.0145 18.2617 95.2074 18.5789 95.339C18.8962 95.4706 19.2363 95.5383 19.5798 95.5383H119.164C119.507 95.5383 119.847 95.4706 120.165 95.339C120.482 95.2074 120.77 95.0145 121.013 94.7714C121.256 94.5283 121.448 94.2397 121.579 93.9221C121.71 93.6046 121.777 93.2644 121.776 92.9209V92.8232C121.777 91.8752 121.509 90.9465 121.003 90.1445C120.497 89.3425 119.775 88.7001 118.92 88.2916C115.182 86.5044 112.026 83.6952 109.818 80.1892C107.61 76.6832 106.44 72.6236 106.443 68.4802Z" fill="#D9F2EA"/>
<path fill-rule="evenodd" clip-rule="evenodd" d="M121.967 95.2667H16.9V92.0667H121.967V95.2667Z" fill="#276E59"/>
<path d="M99.0334 47.2668C107.281 47.2668 113.967 40.5809 113.967 32.3335C113.967 24.086 107.281 17.4001 99.0334 17.4001C90.786 17.4001 84.1001 24.086 84.1001 32.3335C84.1001 40.5809 90.786 47.2668 99.0334 47.2668Z" fill="white"/>
<path d="M95.3 32.3276C95.3 31.003 95.6029 29.9617 96.2085 29.2037C96.8224 28.4457 97.764 28.0667 99.0334 28.0667C100.294 28.0667 101.232 28.4495 101.846 29.2151C102.46 29.9732 102.767 31.0106 102.767 32.3276C102.767 33.6522 102.46 34.6973 101.846 35.463C101.232 36.221 100.294 36.6 99.0334 36.6C97.764 36.6 96.8224 36.221 96.2085 35.463C95.6029 34.6973 95.3 33.6522 95.3 32.3276ZM100.041 32.3276C100.041 31.715 99.975 31.2556 99.8423 30.9494C99.7095 30.6355 99.4399 30.4785 99.0334 30.4785C98.6186 30.4785 98.3448 30.6355 98.212 30.9494C98.0793 31.2556 98.0129 31.715 98.0129 32.3276C98.0129 32.9478 98.0793 33.4148 98.212 33.7287C98.3448 34.035 98.6186 34.1881 99.0334 34.1881C99.4399 34.1881 99.7095 34.035 99.8423 33.7287C99.975 33.4148 100.041 32.9478 100.041 32.3276Z" fill="#276E59"/>
<path fill-rule="evenodd" clip-rule="evenodd" d="M40.424 103.428C37.8691 105.738 35.3213 108.002 32.8348 110.386C32.298 110.897 32.2778 111.739 32.7857 112.27C33.2951 112.806 34.1423 112.823 34.674 112.314C37.1485 109.945 39.6741 107.7 42.212 105.406C42.7588 104.908 42.8011 104.064 42.3119 103.522C41.8161 102.976 40.9708 102.93 40.424 103.428Z" fill="#276E59"/>
<path fill-rule="evenodd" clip-rule="evenodd" d="M98.1397 103.428C100.68 105.74 103.214 108.004 105.686 110.388C106.219 110.899 106.235 111.741 105.725 112.271C105.214 112.806 104.367 112.822 103.839 112.312C101.379 109.943 98.8674 107.698 96.3437 105.403C95.8 104.906 95.762 104.062 96.2534 103.521C96.7515 102.976 97.596 102.931 98.1397 103.428Z" fill="#276E59"/>
<path fill-rule="evenodd" clip-rule="evenodd" d="M67.6479 118.358C67.6074 121.795 67.5373 125.196 67.5969 128.632C67.6071 129.372 68.2109 129.956 68.9446 129.942C69.6833 129.931 70.2705 129.321 70.2582 128.586C70.2015 125.168 70.2701 121.797 70.3113 118.383C70.3179 117.646 69.7278 117.044 68.9982 117.036C68.2614 117.031 67.6545 117.62 67.6479 118.358Z" fill="#276E59"/>
<defs>
<linearGradient id="paint0_linear_1049_7902" x1="69.2313" y1="-18.9313" x2="70.4768" y2="194.589" gradientUnits="userSpaceOnUse">
<stop stop-color="#F2F2F2"/>
<stop offset="1" stop-color="#EFEFEF"/>
</linearGradient>
<linearGradient id="paint1_linear_1049_7902" x1="45.7" y1="62.1245" x2="93.0253" y2="99.987" gradientUnits="userSpaceOnUse">
<stop stop-color="#E1DCEB"/>
<stop offset="1" stop-color="#B3AFBA"/>
</linearGradient>
</defs>
</svg>
