<svg width="161" height="188" viewBox="0 0 161 188" fill="none" xmlns="http://www.w3.org/2000/svg">
<path d="M80.5 176.534C124.683 176.534 160.5 140.716 160.5 96.5337C160.5 52.3509 124.683 16.5337 80.5 16.5337C36.3172 16.5337 0.5 52.3509 0.5 96.5337C0.5 140.716 36.3172 176.534 80.5 176.534Z" fill="url(#paint0_linear_1120_7736)"/>
<g filter="url(#filter0_d_1120_7736)">
<path d="M126.367 62.4004H34.6336C31.688 62.4004 29.3002 64.7882 29.3002 67.7337V179.734C29.3002 182.679 31.688 185.067 34.6336 185.067H126.367C129.312 185.067 131.7 182.679 131.7 179.734V67.7337C131.7 64.7882 129.312 62.4004 126.367 62.4004Z" fill="white"/>
</g>
<path d="M69.8334 78.3999H42.1C40.3327 78.3999 38.9 79.8326 38.9 81.5999C38.9 83.3672 40.3327 84.7999 42.1 84.7999H69.8334C71.6007 84.7999 73.0334 83.3672 73.0334 81.5999C73.0334 79.8326 71.6007 78.3999 69.8334 78.3999Z" fill="#D0D5DD"/>
<path d="M89.0334 92.2666H42.1C40.3327 92.2666 38.9 93.6993 38.9 95.4666C38.9 97.2339 40.3327 98.6666 42.1 98.6666H89.0334C90.8007 98.6666 92.2334 97.2339 92.2334 95.4666C92.2334 93.6993 90.8007 92.2666 89.0334 92.2666Z" fill="#EAECF0"/>
<path d="M69.8334 107.201H42.1C40.3327 107.201 38.9 108.633 38.9 110.401C38.9 112.168 40.3327 113.601 42.1 113.601H69.8334C71.6007 113.601 73.0334 112.168 73.0334 110.401C73.0334 108.633 71.6007 107.201 69.8334 107.201Z" fill="#D0D5DD"/>
<path d="M89.0334 121.067H42.1C40.3327 121.067 38.9 122.5 38.9 124.267C38.9 126.035 40.3327 127.467 42.1 127.467H89.0334C90.8007 127.467 92.2334 126.035 92.2334 124.267C92.2334 122.5 90.8007 121.067 89.0334 121.067Z" fill="#EAECF0"/>
<path d="M69.8334 136.001H42.1C40.3327 136.001 38.9 137.434 38.9 139.201C38.9 140.968 40.3327 142.401 42.1 142.401H69.8334C71.6007 142.401 73.0334 140.968 73.0334 139.201C73.0334 137.434 71.6007 136.001 69.8334 136.001Z" fill="#D0D5DD"/>
<path d="M89.0334 149.867H42.1C40.3327 149.867 38.9 151.3 38.9 153.067C38.9 154.834 40.3327 156.267 42.1 156.267H89.0334C90.8007 156.267 92.2334 154.834 92.2334 153.067C92.2334 151.3 90.8007 149.867 89.0334 149.867Z" fill="#EAECF0"/>
<g filter="url(#filter1_d_1120_7736)">
<path d="M126.367 8H34.6333C31.6878 8 29.3 10.3878 29.3 13.3333V45.3333C29.3 48.2789 31.6878 50.6667 34.6333 50.6667H126.367C129.312 50.6667 131.7 48.2789 131.7 45.3333V13.3333C131.7 10.3878 129.312 8 126.367 8Z" fill="#276E59"/>
</g>
<path d="M69.8332 19.7344H42.0998C40.3325 19.7344 38.8998 21.1671 38.8998 22.9344C38.8998 24.7017 40.3325 26.1344 42.0998 26.1344H69.8332C71.6005 26.1344 73.0332 24.7017 73.0332 22.9344C73.0332 21.1671 71.6005 19.7344 69.8332 19.7344Z" fill="#EAECF0"/>
<path d="M89.0332 33.6011H42.0998C40.3325 33.6011 38.8998 35.0338 38.8998 36.8011C38.8998 38.5684 40.3325 40.0011 42.0998 40.0011H89.0332C90.8005 40.0011 92.2332 38.5684 92.2332 36.8011C92.2332 35.0338 90.8005 33.6011 89.0332 33.6011Z" fill="white"/>
<defs>
<filter id="filter0_d_1120_7736" x="24.493" y="55.1895" width="112.014" height="132.281" filterUnits="userSpaceOnUse" color-interpolation-filters="sRGB">
<feFlood flood-opacity="0" result="BackgroundImageFix"/>
<feColorMatrix in="SourceAlpha" type="matrix" values="0 0 0 0 0 0 0 0 0 0 0 0 0 0 0 0 0 0 127 0" result="hardAlpha"/>
<feOffset dy="-2.40362"/>
<feGaussianBlur stdDeviation="2.40362"/>
<feColorMatrix type="matrix" values="0 0 0 0 0.788235 0 0 0 0 0.803922 0 0 0 0 0.85098 0 0 0 0.349 0"/>
<feBlend mode="normal" in2="BackgroundImageFix" result="effect1_dropShadow_1120_7736"/>
<feBlend mode="normal" in="SourceGraphic" in2="effect1_dropShadow_1120_7736" result="shape"/>
</filter>
<filter id="filter1_d_1120_7736" x="24.4928" y="0.789149" width="112.014" height="52.281" filterUnits="userSpaceOnUse" color-interpolation-filters="sRGB">
<feFlood flood-opacity="0" result="BackgroundImageFix"/>
<feColorMatrix in="SourceAlpha" type="matrix" values="0 0 0 0 0 0 0 0 0 0 0 0 0 0 0 0 0 0 127 0" result="hardAlpha"/>
<feOffset dy="-2.40362"/>
<feGaussianBlur stdDeviation="2.40362"/>
<feColorMatrix type="matrix" values="0 0 0 0 0.788235 0 0 0 0 0.803922 0 0 0 0 0.85098 0 0 0 0.349 0"/>
<feBlend mode="normal" in2="BackgroundImageFix" result="effect1_dropShadow_1120_7736"/>
<feBlend mode="normal" in="SourceGraphic" in2="effect1_dropShadow_1120_7736" result="shape"/>
</filter>
<linearGradient id="paint0_linear_1120_7736" x1="80.5" y1="16.5337" x2="80.5" y2="176.534" gradientUnits="userSpaceOnUse">
<stop stop-color="#EAECF0"/>
<stop offset="1" stop-color="#EAECF0"/>
</linearGradient>
</defs>
</svg>
