<svg width="375" height="378" viewBox="0 0 375 378" fill="none" xmlns="http://www.w3.org/2000/svg">
<g clip-path="url(#clip0_1120_7473)">
<circle cx="189" cy="189" r="135" fill="#ECF8F5"/>
<circle cx="189" cy="189" r="100.823" fill="#B2E4D5"/>
<circle cx="189" cy="189" r="63.2278" fill="#79D0B6"/>
<path fill-rule="evenodd" clip-rule="evenodd" d="M174.439 170.353L174.436 170.357L186.994 185.188V170.357V155.526V155.241C182.731 158.75 178.301 163.982 174.439 170.354V170.353Z" fill="#276E59"/>
<path fill-rule="evenodd" clip-rule="evenodd" d="M201.56 170.353L201.563 170.357L189.005 185.188V170.357V155.526V155.241C193.269 158.75 197.698 163.982 201.56 170.354V170.353Z" fill="#276E59"/>
<path d="M188.079 190.147C189.292 190.147 190.275 189.173 190.275 187.971C190.275 186.769 189.292 185.794 188.079 185.794C186.866 185.794 185.883 186.769 185.883 187.971C185.883 189.173 186.866 190.147 188.079 190.147Z" fill="#276E59"/>
<path d="M190.43 184.997L199.705 174.044L199.99 174.279L190.715 185.233L190.43 184.997Z" fill="#276E59"/>
<path d="M190.663 190.751L199.937 201.704L199.652 201.94L190.379 190.987L190.663 190.751Z" fill="#276E59"/>
<path d="M185.817 191.017L176.543 201.97L176.258 201.735L185.533 190.781L185.817 191.017Z" fill="#276E59"/>
<path d="M184.27 188.207H169.842V187.839H184.27V188.207Z" fill="#276E59"/>
<path d="M206.318 188.207H191.889V187.839H206.318V188.207Z" fill="#276E59"/>
<path d="M187.814 205.964V191.745H188.185V205.964H187.814Z" fill="#276E59"/>
<path d="M187.814 184.117V169.896H188.185V184.117H187.814Z" fill="#276E59"/>
<path d="M185.808 185.019L185.524 185.255L176.25 174.301L176.534 174.065L185.808 185.019Z" fill="#276E59"/>
<path fill-rule="evenodd" clip-rule="evenodd" d="M160.239 186.978L160.241 186.975C164.172 180.641 168.668 175.408 173.008 171.819L173.041 171.859L185.842 186.978H160.239H160.239Z" fill="#276E59"/>
<path fill-rule="evenodd" clip-rule="evenodd" d="M215.76 186.978L215.759 186.975C211.828 180.641 207.332 175.408 202.992 171.819L202.959 171.859L190.158 186.978H215.761H215.76Z" fill="#276E59"/>
<path fill-rule="evenodd" clip-rule="evenodd" d="M215.76 188.903L215.759 188.906C211.828 195.24 207.332 200.473 202.992 204.062L202.959 204.022L190.158 188.903H215.761H215.76Z" fill="#276E59" stroke="#276E59" stroke-width="0.003" stroke-miterlimit="2.61313"/>
<path fill-rule="evenodd" clip-rule="evenodd" d="M174.439 205.646L174.436 205.643L186.994 190.812V205.643V220.474V220.76C182.731 217.251 178.301 212.019 174.439 205.647V205.646Z" fill="#276E59"/>
<path fill-rule="evenodd" clip-rule="evenodd" d="M201.56 205.646L201.563 205.643L189.005 190.812V205.643V220.474V220.76C193.269 217.251 197.698 212.019 201.56 205.647V205.646Z" fill="#276E59"/>
<path fill-rule="evenodd" clip-rule="evenodd" d="M160.239 188.903L160.241 188.906C164.172 195.24 168.668 200.473 173.008 204.062L173.041 204.022L185.842 188.903H160.239H160.239Z" fill="#276E59"/>
</g>
<defs>
<clipPath id="clip0_1120_7473">
<rect width="378" height="378" fill="white" transform="translate(-1)"/>
</clipPath>
</defs>
</svg>
