<svg width="30" height="30" viewBox="0 0 30 30" fill="none" xmlns="http://www.w3.org/2000/svg">
<path d="M21.285 0H8.715C3.255 0 0 3.255 0 8.715V21.285C0 25.5 1.935 28.395 5.34 29.49C6.33 29.835 7.47 30 8.715 30H21.285C22.53 30 23.67 29.835 24.66 29.49C28.065 28.395 30 25.5 30 21.285V8.715C30 3.255 26.745 0 21.285 0ZM27.75 21.285C27.75 24.495 26.49 26.52 23.955 27.36C22.5 24.495 19.05 22.455 15 22.455C10.95 22.455 7.515 24.48 6.045 27.36H6.03C3.525 26.55 2.25 24.51 2.25 21.3V8.715C2.25 4.485 4.485 2.25 8.715 2.25H21.285C25.515 2.25 27.75 4.485 27.75 8.715V21.285Z" fill="#292D32"/>
<path d="M15 9C12.03 9 9.63 11.4 9.63 14.37C9.63 17.34 12.03 19.755 15 19.755C17.97 19.755 20.37 17.34 20.37 14.37C20.37 11.4 17.97 9 15 9Z" fill="#292D32"/>
</svg>
