<svg width="25" height="24" viewBox="0 0 25 24" fill="none" xmlns="http://www.w3.org/2000/svg">
<path d="M22.52 16.8203L19.39 9.50027C18.82 8.16027 17.97 7.40027 17 7.35027C16.04 7.30027 15.11 7.97027 14.4 9.25027L12.5 12.6603C12.1 13.3803 11.53 13.8103 10.91 13.8603C10.28 13.9203 9.65002 13.5903 9.14002 12.9403L8.92002 12.6603C8.21002 11.7703 7.33002 11.3403 6.43002 11.4303C5.53002 11.5203 4.76002 12.1403 4.25002 13.1503L2.52002 16.6003C1.90002 17.8503 1.96002 19.3003 2.69002 20.4803C3.42002 21.6603 4.69002 22.3703 6.08002 22.3703H18.84C20.18 22.3703 21.43 21.7003 22.17 20.5803C22.93 19.4603 23.05 18.0503 22.52 16.8203Z" fill="#292D32"/>
<path d="M7.46997 8.38012C9.33669 8.38012 10.85 6.86684 10.85 5.00012C10.85 3.13339 9.33669 1.62012 7.46997 1.62012C5.60324 1.62012 4.08997 3.13339 4.08997 5.00012C4.08997 6.86684 5.60324 8.38012 7.46997 8.38012Z" fill="#292D32"/>
</svg>
